<svg xmlns="http://www.w3.org/2000/svg" version="1.1" xmlns:xlink="http://www.w3.org/1999/xlink" xmlns:svgjs="http://svgjs.com/svgjs" id="Pattern959SvgRootPreview" width="100%" height="100%"><defs><pattern x="0" y="0" width="1" height="1" patternUnits="userSpaceOnUse" id="Pattern959Layer1"><g id="PatternRootContent1"><g id="Pattern959Layer1background"><rect width="1" height="1" id="Pattern959Background1" class="color_1 fill_color_1" fill="#99919c"></rect></g></g></pattern><pattern x="0" y="0" width="21.08395324123273" height="36.89691817215728" patternUnits="userSpaceOnUse" id="Pattern959Layer2" patternTransform="matrix(-1.0394469683442247,1.039446968344225,-1.039446968344225,-1.0394469683442247,0,0)" viewBox="0 0 21.08395324123273 36.89691817215728" preserveAspectRatio="xMidYMid slice"><g id="PatternRootContent2" transform="scale(0.6588735387885228) rotate(0)"><g id="Pattern959Layer2Element1"><use xlink:href="#Pattern959Element1" x="19" y="-29" transform="translate(34, -14) scale(1.2) translate(-34, 14) rotate(0, 32, -14)"></use><use xlink:href="#Pattern959Element1" x="-13" y="-29" transform="translate(2, -14) scale(1.2) translate(-2, 14) rotate(0, 0, -14)"></use><use xlink:href="#Pattern959Element1" x="3" y="-1" transform="translate(18, 14) scale(1.2) translate(-18, -14) rotate(0, 16, 14)"></use><use xlink:href="#Pattern959Element1" x="-29" y="-1" transform="translate(-14, 14) scale(1.2) translate(14, -14) rotate(0, -16, 14)"></use><use xlink:href="#Pattern959Element1" x="35" y="-1" transform="translate(50, 14) scale(1.2) translate(-50, -14) rotate(0, 48, 14)"></use><use xlink:href="#Pattern959Element1" x="19" y="27" transform="translate(34, 42) scale(1.2) translate(-34, -42) rotate(0, 32, 42)"></use><use xlink:href="#Pattern959Element1" x="-13" y="27" transform="translate(2, 42) scale(1.2) translate(-2, -42) rotate(0, 0, 42)"></use><use xlink:href="#Pattern959Element1" x="3" y="55" transform="translate(18, 70) scale(1.2) translate(-18, -70) rotate(0, 16, 70)"></use><use xlink:href="#Pattern959Element1" x="3" y="55" transform="translate(18, 70) scale(1.2) translate(-18, -70) rotate(0, 16, 70)"></use></g></g></pattern><symbol id="Pattern959Element1"><polygon points="13,0 26,7.5 26,22.5 13,30 0,22.5 0,7.5 " class="color_2 fill_color_2" fill="#30324a"></polygon></symbol></defs><rect width="100%" height="100%" id="Pattern959RctLayer1" fill="url(#Pattern959Layer1)"></rect><rect width="100%" height="100%" id="Pattern959RctLayer2" fill="url(#Pattern959Layer2)"></rect></svg>